# xmcd CD database file
#
# Track frame offsets:
#	150
#	23724
#	50922
#	72553
#	91042
#	108850
#	122319
#	138340
#	154432
#	171251
#	188574
#	209712
#	238816
#	253493
#
# Disc length: 3816 seconds
#
# Revision: 0
# Processed by: cddbd v1.5.2PL0 Copyright (c) Steve Scherf et al.
# Submitted via: CDex 1.99.1
#
DISCID=cd0ee60e
DTITLE=Various Artist - Snow of Finland
DYEAR=2016
DGENRE=Jazz
TTITLE0=Kerouac Days In Montana
TTITLE1=Weldon
TTITLE2=Virtasen Yhtye Soittaa Jatsia
TTITLE3=Jo Joutuu Ilta
TTITLE4=Butterfly
TTITLE5=We Wish You a Merry Christmas
TTITLE6=Eleanor Rigby
TTITLE7=Sparkling Arsenic
TTITLE8=Aurora
TTITLE9=For Sofia
TTITLE10=Skip
TTITLE11=All Children Have Superpowers
TTITLE12=Ballad (Wings, Feather, Space)
TTITLE13=30th Hour
EXTD=YEAR: 2016
EXTT0=
EXTT1=
EXTT2=
EXTT3=
EXTT4=
EXTT5=
EXTT6=
EXTT7=
EXTT8=
EXTT9=
EXTT10=
EXTT11=
EXTT12=
EXTT13=
PLAYORDER=
